<svg width="48" height="48" viewBox="0 0 48 48" fill="none" xmlns="http://www.w3.org/2000/svg">
<circle cx="24" cy="24" r="23" fill="#EAAF4A" stroke="#EAAF4A" stroke-width="2"/>
<path d="M8.91504 34.5C8.91504 34.3242 9.0293 34.1953 9.25781 34.1133C10.8867 33.4805 12.5156 31.5469 14.1445 28.3125C15.4219 25.7812 16.4238 23.1152 17.1504 20.3145C17.4375 19.207 17.5811 18.4072 17.5811 17.915C17.5811 17.7334 17.54 17.6426 17.458 17.6426C16.6846 17.6426 15.7061 18.2344 14.5225 19.418C14.4053 19.5352 14.2734 19.5938 14.127 19.5938C13.9863 19.5938 13.8457 19.5645 13.7051 19.5059C13.5703 19.4473 13.4473 19.3711 13.3359 19.2773C13.0723 19.0723 12.9404 18.8643 12.9404 18.6533C12.9404 18.4365 13.0078 18.2373 13.1426 18.0557C13.2773 17.874 13.459 17.6982 13.6875 17.5283C13.916 17.3584 14.1768 17.2031 14.4697 17.0625C14.7627 16.916 15.0703 16.7871 15.3926 16.6758C16.0723 16.4473 16.5938 16.333 16.957 16.333C17.3262 16.333 17.6484 16.3564 17.9238 16.4033C18.1992 16.4443 18.4629 16.5176 18.7148 16.623C19.3242 16.8867 19.6289 17.2646 19.6289 17.7568C19.6289 18.6357 19.3535 20.0391 18.8027 21.9668C18.2168 24.0059 17.4492 26.001 16.5 27.9521C15.1289 30.6943 13.6816 32.666 12.1582 33.8672C11.2676 34.5703 10.4238 34.9219 9.62695 34.9219C9.32812 34.9219 9.11133 34.8428 8.97656 34.6846C8.93555 34.6318 8.91504 34.5703 8.91504 34.5ZM34.8867 28.2246C35.0332 28.2246 35.1064 28.3301 35.1064 28.541C35.1064 28.7461 35.0684 28.916 34.9922 29.0508C34.916 29.1855 34.8281 29.3086 34.7285 29.4199C34.6289 29.5312 34.5029 29.6367 34.3506 29.7363C33.9932 29.9707 33.6152 30.0879 33.2168 30.0879C32.8242 30.0879 32.5107 30.041 32.2764 29.9473C32.0479 29.8477 31.8486 29.7012 31.6787 29.5078C31.3154 29.1035 31.1338 28.5439 31.1338 27.8291C31.1338 27.0674 31.2803 26.1387 31.5732 25.043C31.8662 23.9414 32.1475 23.001 32.417 22.2217C32.6924 21.4365 32.9736 20.6895 33.2607 19.9805L34.0518 17.9678C33.1846 18.7471 32.0859 20.3848 30.7559 22.8809L28.6289 26.9062C27.4922 29.0273 26.6807 30.0879 26.1943 30.0879C25.7197 30.0879 25.3945 29.8828 25.2188 29.4727C25.0605 29.0801 24.9814 28.415 24.9814 27.4775C24.9814 26.5342 25.0547 25.6318 25.2012 24.7705C25.3535 23.9033 25.5439 23.0566 25.7725 22.2305C26.1709 20.7715 26.6865 19.3242 27.3193 17.8887C26.7041 18.2344 26.0215 19.0049 25.2715 20.2002C24.6973 21.1553 24.293 21.8525 24.0586 22.292L21.791 26.4668C20.8477 28.1836 20.0889 29.2441 19.5146 29.6484C19.0986 29.9414 18.6504 30.0879 18.1699 30.0879C17.7598 30.0879 17.4639 29.959 17.2822 29.7012C17.2119 29.5957 17.1768 29.499 17.1768 29.4111C17.1768 29.3232 17.2031 29.2705 17.2559 29.2529C17.6191 29.1533 17.877 29.0508 18.0293 28.9453C18.1758 28.834 18.3223 28.7227 18.4688 28.6113C18.6152 28.4941 18.8291 28.251 19.1104 27.8818C19.3916 27.5068 19.6963 27.0586 20.0244 26.5371C20.3525 26.0098 20.6953 25.4209 21.0527 24.7705L22.1689 22.7139C23.2002 20.7217 24.2783 19.125 25.4033 17.9238C25.8018 17.4961 26.1943 17.165 26.5811 16.9307C26.9678 16.6553 27.416 16.4707 27.9258 16.377C28.0664 16.3477 28.1953 16.333 28.3125 16.333C28.4355 16.333 28.5703 16.3506 28.7168 16.3857C28.8691 16.4209 29.001 16.4766 29.1123 16.5527C29.3701 16.7285 29.4463 16.9629 29.3408 17.2559C29.2939 17.4316 29.2031 17.6953 29.0684 18.0469L28.5938 19.3037C27.4863 22.3623 26.8799 25.1455 26.7744 27.6533C27.085 27.1201 27.3984 26.5371 27.7148 25.9043L28.708 23.9443L29.7539 21.9492C31.3652 18.9609 32.8623 17.25 34.2451 16.8164C34.5322 16.7227 34.7725 16.6758 34.9658 16.6758C35.1592 16.6758 35.3115 16.7021 35.4229 16.7549C35.5342 16.8018 35.6338 16.8633 35.7217 16.9395C35.9268 17.127 35.9971 17.3203 35.9326 17.5195C35.8682 17.7129 35.7832 17.9619 35.6777 18.2666L34.4033 21.9844L33.9463 23.4434C33.4424 25.1309 33.1436 26.4258 33.0498 27.3281C33.0146 27.709 33.0557 28.0078 33.1729 28.2246C33.2959 28.4355 33.4629 28.541 33.6738 28.541C33.8848 28.541 34.0488 28.5264 34.166 28.4971C34.2891 28.4619 34.3945 28.4238 34.4824 28.3828L34.7109 28.2773C34.7754 28.2422 34.834 28.2246 34.8867 28.2246Z" fill="#1B1B29"/>
</svg>
