<svg width="48" height="48" viewBox="0 0 48 48" fill="none" xmlns="http://www.w3.org/2000/svg">
<circle cx="24" cy="24" r="23" stroke="#EAAF4A" stroke-width="2"/>
<path d="M17.8467 18.2031H19.543V27.2646C19.543 28.4893 19.1738 29.4473 18.4355 30.1387C17.7031 30.8301 16.7246 31.1758 15.5 31.1758C14.2285 31.1758 13.2383 30.8506 12.5293 30.2002C11.8203 29.5498 11.4658 28.6387 11.4658 27.4668H13.1533C13.1533 28.1992 13.3525 28.7705 13.751 29.1807C14.1553 29.5908 14.7383 29.7959 15.5 29.7959C16.1973 29.7959 16.7598 29.5762 17.1875 29.1367C17.6211 28.6973 17.8408 28.082 17.8467 27.291V18.2031ZM24.5967 18.2031L28.7803 28.6445L32.9639 18.2031H35.1523V31H33.4648V26.0166L33.623 20.6377L29.4219 31H28.1299L23.9375 20.6641L24.1045 26.0166V31H22.417V18.2031H24.5967Z" fill="#EAAF4A"/>
</svg>
